# This file uses centimeters as units for non-parametric coordinates.

v 0.100000 -0.100000 -0.000000
v -0.100000 -0.100000 0.000000
v 0.100000 0.100000 -0.000000
v -0.100000 0.100000 0.000000
v 0.100000 0.100000 0.224584
v -0.100000 0.100000 0.224584
v 0.100000 -0.100000 0.224584
v -0.100000 -0.100000 0.224584
v 0.129946 0.129946 0.224584
v -0.129946 0.129946 0.224584
v -0.129946 -0.129946 0.224584
v 0.129946 -0.129946 0.224584
v 0.129946 0.129946 0.600000
v -0.129946 0.129946 0.600000
v -0.129946 -0.129946 0.600000
v 0.129946 -0.129946 0.600000
v 0.122474 -0.070711 -0.100000
v -0.070711 -0.122474 -0.100000
v -0.122474 0.070711 -0.100000
v 0.070711 0.122474 -0.100000
v 0.136603 -0.036603 -0.200000
v -0.036603 -0.136603 -0.200000
v -0.136603 0.036603 -0.200000
v 0.036603 0.136603 -0.200000
v 0.141421 0.000000 -0.300000
v -0.000000 -0.141421 -0.300000
v -0.141421 0.000000 -0.300000
v -0.000000 0.141421 -0.300000
v 0.136603 0.036603 -0.400000
v 0.036603 -0.136603 -0.400000
v -0.136603 -0.036603 -0.400000
v -0.036603 0.136603 -0.400000
v 0.122474 0.070711 -0.500000
v 0.070711 -0.122474 -0.500000
v -0.122474 -0.070711 -0.500000
v -0.070711 0.122474 -0.500000
v 0.100000 0.100000 -0.600000
v 0.100000 -0.100000 -0.600000
v -0.100000 -0.100000 -0.600000
v -0.100000 0.100000 -0.600000
v 0.067981 0.067981 -0.900000
v 0.067981 -0.067981 -0.900000
v -0.067981 -0.067981 -0.900000
v -0.067981 0.067981 -0.900000
vt 0.375000 0.000000
vt 0.625000 0.000000
vt 0.375000 0.250000
vt 0.625000 0.250000
vt 0.375000 0.250000
vt 0.625000 0.250000
vt 0.375000 0.500000
vt 0.625000 0.500000
vt 0.375000 0.500000
vt 0.625000 0.500000
vt 0.375000 0.750000
vt 0.625000 0.750000
vt 0.375000 0.750000
vt 0.625000 0.750000
vt 0.375000 1.000000
vt 0.625000 1.000000
vt 0.625000 0.000000
vt 0.875000 0.000000
vt 0.875000 0.250000
vt 0.125000 0.000000
vt 0.375000 0.000000
vt 0.125000 0.250000
vt 0.375000 0.500000
vt 0.625000 0.500000
vt 0.625000 0.750000
vt 0.375000 0.750000
vt 0.625000 0.000000
vt 0.375000 0.000000
vt 0.625000 0.250000
vt 0.375000 0.250000
vt 0.625000 0.000000
vt 0.375000 0.000000
vt 0.625000 0.250000
vt 0.375000 0.250000
vt 0.625000 0.000000
vt 0.375000 0.000000
vt 0.625000 0.250000
vt 0.375000 0.250000
vt 0.625000 0.000000
vt 0.375000 0.000000
vt 0.625000 0.250000
vt 0.375000 0.250000
vt 0.625000 0.000000
vt 0.375000 0.000000
vt 0.625000 0.250000
vt 0.375000 0.250000
vt 0.625000 0.000000
vt 0.375000 0.000000
vt 0.625000 0.250000
vt 0.375000 0.250000
vn -0.000000 0.000000 -1.000000
vn -0.000000 0.000000 -1.000000
vn -0.000000 0.000000 -1.000000
vn -0.000000 0.000000 -1.000000
vn -0.000000 0.000000 -1.000000
vn -0.000000 0.000000 -1.000000
vn -0.023961 0.999713 0.000000
vn -0.049056 0.998796 0.000000
vn -0.000000 1.000000 0.000000
vn -0.000000 1.000000 0.000000
vn -0.049056 0.998796 0.000000
vn -0.000000 1.000000 0.000000
vn 0.000000 0.000000 1.000000
vn 0.000000 0.000000 1.000000
vn 0.000000 0.000000 1.000000
vn 0.000000 0.000000 1.000000
vn 0.000000 0.000000 1.000000
vn 0.000000 0.000000 1.000000
vn 0.000000 -1.000000 0.000000
vn 0.000000 -1.000000 0.000000
vn 0.049056 -0.998796 -0.000000
vn 0.049056 -0.998796 -0.000000
vn 0.000000 -1.000000 0.000000
vn 0.023961 -0.999713 -0.000000
vn -0.998796 -0.049056 0.000000
vn -1.000000 0.000000 0.000000
vn -0.999713 -0.023961 0.000000
vn -0.999713 -0.023961 0.000000
vn -1.000000 0.000000 0.000000
vn -1.000000 0.000000 0.000000
vn 1.000000 0.000000 -0.000000
vn 0.999713 0.023961 -0.000000
vn 1.000000 0.000000 -0.000000
vn 1.000000 0.000000 -0.000000
vn 0.999713 0.023961 -0.000000
vn 0.998796 0.049056 -0.000000
vn -0.000000 0.000000 -1.000000
vn -0.000000 0.000000 -1.000000
vn -0.000000 0.000000 -1.000000
vn -0.000000 0.000000 -1.000000
vn -0.000000 0.000000 -1.000000
vn -0.000000 0.000000 -1.000000
vn -0.000000 0.000000 -1.000000
vn -0.000000 0.000000 -1.000000
vn -0.000000 0.000000 -1.000000
vn -0.000000 0.000000 -1.000000
vn -0.000000 0.000000 -1.000000
vn -0.000000 0.000000 -1.000000
vn -0.000000 0.000000 -1.000000
vn -0.000000 0.000000 -1.000000
vn -0.000000 0.000000 -1.000000
vn -0.000000 0.000000 -1.000000
vn -0.000000 0.000000 -1.000000
vn -0.000000 0.000000 -1.000000
vn -0.000000 0.000000 -1.000000
vn -0.000000 0.000000 -1.000000
vn -0.000000 0.000000 -1.000000
vn -0.000000 0.000000 -1.000000
vn -0.000000 0.000000 -1.000000
vn -0.000000 0.000000 -1.000000
vn -0.000000 1.000000 0.000000
vn -0.000000 1.000000 0.000000
vn -0.000000 1.000000 0.000000
vn -0.000000 1.000000 0.000000
vn -0.000000 1.000000 0.000000
vn -0.000000 1.000000 0.000000
vn -1.000000 0.000000 0.000000
vn -1.000000 0.000000 0.000000
vn -1.000000 0.000000 0.000000
vn -1.000000 0.000000 0.000000
vn -1.000000 0.000000 0.000000
vn -1.000000 0.000000 0.000000
vn 0.000000 -1.000000 0.000000
vn 0.000000 -1.000000 0.000000
vn 0.000000 -1.000000 0.000000
vn 0.000000 -1.000000 0.000000
vn 0.000000 -1.000000 0.000000
vn 0.000000 -1.000000 0.000000
vn 1.000000 0.000000 -0.000000
vn 1.000000 0.000000 -0.000000
vn 1.000000 0.000000 -0.000000
vn 1.000000 0.000000 -0.000000
vn 1.000000 0.000000 -0.000000
vn 1.000000 0.000000 -0.000000
vn 0.023961 -0.999713 -0.000000
vn 0.200526 -0.979688 -0.000000
vn 0.049056 -0.998796 -0.000000
vn 0.049056 -0.998796 -0.000000
vn 0.200526 -0.979688 -0.000000
vn 0.316184 -0.948698 -0.000000
vn -0.999713 -0.023961 0.000000
vn -0.979688 -0.200526 0.000000
vn -0.998796 -0.049056 0.000000
vn -0.998796 -0.049056 0.000000
vn -0.979688 -0.200526 0.000000
vn -0.948698 -0.316184 0.000000
vn -0.023961 0.999713 0.000000
vn -0.200526 0.979688 0.000000
vn -0.049056 0.998796 0.000000
vn -0.049056 0.998796 0.000000
vn -0.200526 0.979688 0.000000
vn -0.316184 0.948698 0.000000
vn 0.999713 0.023961 -0.000000
vn 0.979688 0.200526 -0.000000
vn 0.998796 0.049056 -0.000000
vn 0.998796 0.049056 -0.000000
vn 0.979688 0.200526 -0.000000
vn 0.948698 0.316184 -0.000000
vn 0.200526 -0.979688 -0.000000
vn 0.447255 -0.894406 -0.000000
vn 0.316184 -0.948698 -0.000000
vn 0.316184 -0.948698 -0.000000
vn 0.447255 -0.894406 -0.000000
vn 0.550951 -0.834538 -0.000000
vn -0.979688 -0.200526 0.000000
vn -0.894406 -0.447255 0.000000
vn -0.948698 -0.316184 0.000000
vn -0.948698 -0.316184 0.000000
vn -0.894406 -0.447255 0.000000
vn -0.834538 -0.550951 0.000000
vn -0.200526 0.979688 0.000000
vn -0.447255 0.894406 0.000000
vn -0.316184 0.948698 0.000000
vn -0.316184 0.948698 0.000000
vn -0.447255 0.894406 0.000000
vn -0.550951 0.834538 0.000000
vn 0.979688 0.200526 -0.000000
vn 0.894406 0.447255 -0.000000
vn 0.948698 0.316184 -0.000000
vn 0.948698 0.316184 -0.000000
vn 0.894406 0.447255 -0.000000
vn 0.834538 0.550951 -0.000000
vn 0.447255 -0.894406 -0.000000
vn 0.663505 -0.748172 -0.000000
vn 0.550951 -0.834538 -0.000000
vn 0.550951 -0.834538 -0.000000
vn 0.663505 -0.748172 -0.000000
vn 0.748172 -0.663505 -0.000000
vn -0.894406 -0.447255 0.000000
vn -0.748172 -0.663505 0.000000
vn -0.834538 -0.550951 0.000000
vn -0.834538 -0.550951 0.000000
vn -0.748172 -0.663505 0.000000
vn -0.663505 -0.748172 0.000000
vn -0.447255 0.894406 0.000000
vn -0.663505 0.748172 0.000000
vn -0.550951 0.834538 0.000000
vn -0.550951 0.834538 0.000000
vn -0.663505 0.748172 0.000000
vn -0.748172 0.663505 0.000000
vn 0.894406 0.447255 -0.000000
vn 0.748172 0.663505 -0.000000
vn 0.834538 0.550951 -0.000000
vn 0.834538 0.550951 -0.000000
vn 0.748172 0.663505 -0.000000
vn 0.663505 0.748172 -0.000000
vn 0.663505 -0.748172 -0.000000
vn 0.834538 -0.550951 -0.000000
vn 0.748172 -0.663505 -0.000000
vn 0.748172 -0.663505 -0.000000
vn 0.834538 -0.550951 -0.000000
vn 0.894406 -0.447255 -0.000000
vn -0.748172 -0.663505 0.000000
vn -0.550951 -0.834538 0.000000
vn -0.663505 -0.748172 0.000000
vn -0.663505 -0.748172 0.000000
vn -0.550951 -0.834538 0.000000
vn -0.447255 -0.894406 0.000000
vn -0.663505 0.748172 0.000000
vn -0.834538 0.550951 0.000000
vn -0.748172 0.663505 0.000000
vn -0.748172 0.663505 0.000000
vn -0.834538 0.550951 0.000000
vn -0.894406 0.447255 0.000000
vn 0.748172 0.663505 -0.000000
vn 0.550951 0.834538 -0.000000
vn 0.663505 0.748172 -0.000000
vn 0.663505 0.748172 -0.000000
vn 0.550951 0.834538 -0.000000
vn 0.447255 0.894406 -0.000000
vn 0.834538 -0.550951 -0.000000
vn 0.948698 -0.316184 -0.000000
vn 0.894406 -0.447255 -0.000000
vn 0.894406 -0.447255 -0.000000
vn 0.948698 -0.316184 -0.000000
vn 0.979688 -0.200526 -0.000000
vn -0.550951 -0.834538 0.000000
vn -0.316184 -0.948698 0.000000
vn -0.447255 -0.894406 0.000000
vn -0.447255 -0.894406 0.000000
vn -0.316184 -0.948698 0.000000
vn -0.200526 -0.979688 0.000000
vn -0.834538 0.550951 0.000000
vn -0.948698 0.316184 0.000000
vn -0.894406 0.447255 0.000000
vn -0.894406 0.447255 0.000000
vn -0.948698 0.316184 0.000000
vn -0.979688 0.200526 0.000000
vn 0.550951 0.834538 -0.000000
vn 0.316184 0.948698 -0.000000
vn 0.447255 0.894406 -0.000000
vn 0.447255 0.894406 -0.000000
vn 0.316184 0.948698 -0.000000
vn 0.200526 0.979688 -0.000000
vn 0.948698 -0.316184 -0.000000
vn 0.991445 -0.130526 -0.000000
vn 0.979688 -0.200526 -0.000000
vn 0.979688 -0.200526 -0.000000
vn 0.991445 -0.130526 -0.000000
vn 0.991445 -0.130526 -0.000000
vn -0.316184 -0.948698 0.000000
vn -0.130526 -0.991445 0.000000
vn -0.200526 -0.979688 0.000000
vn -0.200526 -0.979688 0.000000
vn -0.130526 -0.991445 0.000000
vn -0.130526 -0.991445 0.000000
vn -0.948698 0.316184 0.000000
vn -0.991445 0.130526 0.000000
vn -0.979688 0.200526 0.000000
vn -0.979688 0.200526 0.000000
vn -0.991445 0.130526 0.000000
vn -0.991445 0.130526 0.000000
vn 0.316184 0.948698 -0.000000
vn 0.130526 0.991445 -0.000000
vn 0.200526 0.979688 -0.000000
vn 0.200526 0.979688 -0.000000
vn 0.130526 0.991445 -0.000000
vn 0.130526 0.991445 -0.000000
vn 0.994353 0.000000 -0.106128
vn 0.994353 0.000000 -0.106128
vn 0.994353 0.000000 -0.106128
vn 0.994353 0.000000 -0.106128
vn 0.994353 0.000000 -0.106128
vn 0.994353 0.000000 -0.106128
vn -0.000000 -0.994353 -0.106128
vn -0.000000 -0.994353 -0.106128
vn -0.000000 -0.994353 -0.106128
vn -0.000000 -0.994353 -0.106128
vn -0.000000 -0.994353 -0.106128
vn -0.000000 -0.994353 -0.106128
vn -0.994353 -0.000000 -0.106128
vn -0.994353 -0.000000 -0.106128
vn -0.994353 -0.000000 -0.106128
vn -0.994353 -0.000000 -0.106128
vn -0.994353 -0.000000 -0.106128
vn -0.994353 -0.000000 -0.106128
vn -0.000000 0.994353 -0.106128
vn -0.000000 0.994353 -0.106128
vn -0.000000 0.994353 -0.106128
vn -0.000000 0.994353 -0.106128
vn -0.000000 0.994353 -0.106128
vn -0.000000 0.994353 -0.106128
s off
f 41/1/1 42/2/2 44/3/3
f 44/3/4 42/2/5 43/4/6
f 3/5/7 4/6/8 5/7/9
f 5/7/10 4/6/11 6/8/12
f 13/9/13 14/10/14 16/11/15
f 16/11/16 14/10/17 15/12/18
f 7/13/19 8/14/20 1/15/21
f 1/15/22 8/14/23 2/16/24
f 2/17/25 8/18/26 4/6/27
f 4/6/28 8/18/29 6/19/30
f 7/20/31 1/21/32 5/22/33
f 5/22/34 1/21/35 3/5/36
f 5/7/37 6/8/38 9/23/39
f 9/23/40 6/8/41 10/24/42
f 6/8/43 8/14/44 10/24/45
f 10/24/46 8/14/47 11/25/48
f 8/14/49 7/13/50 11/25/51
f 11/25/52 7/13/53 12/26/54
f 7/13/55 5/7/56 12/26/57
f 12/26/58 5/7/59 9/23/60
f 9/23/61 10/24/62 13/9/63
f 13/9/64 10/24/65 14/10/66
f 10/24/67 11/25/68 14/10/69
f 14/10/70 11/25/71 15/12/72
f 11/25/73 12/26/74 15/12/75
f 15/12/76 12/26/77 16/11/78
f 12/26/79 9/23/80 16/11/81
f 16/11/82 9/23/83 13/9/84
f 2/17/85 18/27/86 1/21/87
f 1/21/88 18/27/89 17/28/90
f 4/6/91 19/29/92 2/17/93
f 2/17/94 19/29/95 18/27/96
f 3/5/97 20/30/98 4/6/99
f 4/6/100 20/30/101 19/29/102
f 1/21/103 17/28/104 3/5/105
f 3/5/106 17/28/107 20/30/108
f 18/27/109 22/31/110 17/28/111
f 17/28/112 22/31/113 21/32/114
f 19/29/115 23/33/116 18/27/117
f 18/27/118 23/33/119 22/31/120
f 20/30/121 24/34/122 19/29/123
f 19/29/124 24/34/125 23/33/126
f 17/28/127 21/32/128 20/30/129
f 20/30/130 21/32/131 24/34/132
f 22/31/133 26/35/134 21/32/135
f 21/32/136 26/35/137 25/36/138
f 23/33/139 27/37/140 22/31/141
f 22/31/142 27/37/143 26/35/144
f 24/34/145 28/38/146 23/33/147
f 23/33/148 28/38/149 27/37/150
f 21/32/151 25/36/152 24/34/153
f 24/34/154 25/36/155 28/38/156
f 26/35/157 30/39/158 25/36/159
f 25/36/160 30/39/161 29/40/162
f 27/37/163 31/41/164 26/35/165
f 26/35/166 31/41/167 30/39/168
f 28/38/169 32/42/170 27/37/171
f 27/37/172 32/42/173 31/41/174
f 25/36/175 29/40/176 28/38/177
f 28/38/178 29/40/179 32/42/180
f 30/39/181 34/43/182 29/40/183
f 29/40/184 34/43/185 33/44/186
f 31/41/187 35/45/188 30/39/189
f 30/39/190 35/45/191 34/43/192
f 32/42/193 36/46/194 31/41/195
f 31/41/196 36/46/197 35/45/198
f 29/40/199 33/44/200 32/42/201
f 32/42/202 33/44/203 36/46/204
f 34/43/205 38/47/206 33/44/207
f 33/44/208 38/47/209 37/48/210
f 35/45/211 39/49/212 34/43/213
f 34/43/214 39/49/215 38/47/216
f 36/46/217 40/50/218 35/45/219
f 35/45/220 40/50/221 39/49/222
f 33/44/223 37/48/224 36/46/225
f 36/46/226 37/48/227 40/50/228
f 37/48/229 38/47/230 41/1/231
f 41/1/232 38/47/233 42/2/234
f 38/47/235 39/49/236 42/2/237
f 42/2/238 39/49/239 43/4/240
f 39/49/241 40/50/242 43/4/243
f 43/4/244 40/50/245 44/3/246
f 40/50/247 37/48/248 44/3/249
f 44/3/250 37/48/251 41/1/252
