# This file uses centimeters as units for non-parametric coordinates.

mtllib testsphere.mtl
v 0.250000 -0.866025 -0.433013
v -0.250000 -0.866025 -0.433013
v -0.500000 -0.866025 0.000000
v -0.250000 -0.866025 0.433013
v 0.250000 -0.866025 0.433013
v 0.500000 -0.866025 0.000000
v 0.433013 -0.500000 -0.750000
v -0.433013 -0.500000 -0.750000
v -0.866025 -0.500000 0.000000
v -0.433013 -0.500000 0.750000
v 0.433013 -0.500000 0.750000
v 0.866025 -0.500000 0.000000
v 0.500000 0.000000 -0.866025
v -0.500000 0.000000 -0.866026
v -1.000000 0.000000 0.000000
v -0.500000 0.000000 0.866025
v 0.500000 0.000000 0.866025
v 1.000000 0.000000 0.000000
v 0.433013 0.500000 -0.750000
v -0.433013 0.500000 -0.750000
v -0.866025 0.500000 0.000000
v -0.433013 0.500000 0.750000
v 0.433013 0.500000 0.750000
v 0.866025 0.500000 0.000000
v 0.250000 0.866025 -0.433013
v -0.250000 0.866025 -0.433013
v -0.500000 0.866025 0.000000
v -0.250000 0.866025 0.433013
v 0.250000 0.866025 0.433013
v 0.500000 0.866025 0.000000
v 0.000000 -1.000000 0.000000
v 0.000000 1.000000 0.000000
vt 0.000000 0.166667
vt 0.166667 0.166667
vt 0.166667 0.333333
vt 0.000000 0.333333
vt 0.333333 0.166667
vt 0.333333 0.333333
vt 0.500000 0.166667
vt 0.500000 0.333333
vt 0.666667 0.166667
vt 0.666667 0.333333
vt 0.833333 0.166667
vt 0.833333 0.333333
vt 1.000000 0.166667
vt 1.000000 0.333333
vt 0.166667 0.500000
vt 0.000000 0.500000
vt 0.333333 0.500000
vt 0.500000 0.500000
vt 0.666667 0.500000
vt 0.833333 0.500000
vt 1.000000 0.500000
vt 0.166667 0.666667
vt 0.000000 0.666667
vt 0.333333 0.666667
vt 0.500000 0.666667
vt 0.666667 0.666667
vt 0.833333 0.666667
vt 1.000000 0.666667
vt 0.166667 0.833333
vt 0.000000 0.833333
vt 0.333333 0.833333
vt 0.500000 0.833333
vt 0.666667 0.833333
vt 0.833333 0.833333
vt 1.000000 0.833333
vt 0.083333 0.000000
vt 0.250000 0.000000
vt 0.416667 0.000000
vt 0.583333 0.000000
vt 0.750000 0.000000
vt 0.916667 0.000000
vt 0.083333 1.000000
vt 0.250000 1.000000
vt 0.416667 1.000000
vt 0.583333 1.000000
vt 0.750000 1.000000
vt 0.916667 1.000000
vn 0.000000 -0.654654 -0.755929
vn 0.000000 -0.654654 -0.755929
vn 0.000000 -0.654654 -0.755929
vn 0.000000 -0.654654 -0.755929
vn -0.654654 -0.654654 -0.377964
vn -0.654654 -0.654654 -0.377964
vn -0.654654 -0.654654 -0.377964
vn -0.654654 -0.654654 -0.377964
vn -0.654654 -0.654654 0.377964
vn -0.654654 -0.654654 0.377964
vn -0.654654 -0.654654 0.377964
vn -0.654654 -0.654654 0.377964
vn 0.000000 -0.654654 0.755929
vn 0.000000 -0.654654 0.755929
vn 0.000000 -0.654654 0.755929
vn 0.000000 -0.654654 0.755929
vn 0.654654 -0.654654 0.377964
vn 0.654654 -0.654654 0.377964
vn 0.654654 -0.654654 0.377964
vn 0.654654 -0.654654 0.377964
vn 0.654654 -0.654654 -0.377964
vn 0.654654 -0.654654 -0.377964
vn 0.654654 -0.654654 -0.377964
vn 0.654654 -0.654654 -0.377964
vn 0.000000 -0.226045 -0.974117
vn 0.000000 -0.226045 -0.974117
vn 0.000000 -0.226045 -0.974117
vn 0.000000 -0.226045 -0.974117
vn -0.843610 -0.226045 -0.487059
vn -0.843610 -0.226045 -0.487059
vn -0.843610 -0.226045 -0.487059
vn -0.843610 -0.226045 -0.487059
vn -0.843610 -0.226045 0.487058
vn -0.843610 -0.226045 0.487058
vn -0.843610 -0.226045 0.487058
vn -0.843610 -0.226045 0.487058
vn 0.000000 -0.226045 0.974117
vn 0.000000 -0.226045 0.974117
vn 0.000000 -0.226045 0.974117
vn 0.000000 -0.226045 0.974117
vn 0.843610 -0.226045 0.487058
vn 0.843610 -0.226045 0.487058
vn 0.843610 -0.226045 0.487058
vn 0.843610 -0.226045 0.487058
vn 0.843610 -0.226045 -0.487058
vn 0.843610 -0.226045 -0.487058
vn 0.843610 -0.226045 -0.487058
vn 0.843610 -0.226045 -0.487058
vn 0.000000 0.226045 -0.974117
vn 0.000000 0.226045 -0.974117
vn 0.000000 0.226045 -0.974117
vn 0.000000 0.226045 -0.974117
vn -0.843610 0.226045 -0.487059
vn -0.843610 0.226045 -0.487059
vn -0.843610 0.226045 -0.487059
vn -0.843610 0.226045 -0.487059
vn -0.843610 0.226045 0.487058
vn -0.843610 0.226045 0.487058
vn -0.843610 0.226045 0.487058
vn -0.843610 0.226045 0.487058
vn 0.000000 0.226045 0.974117
vn 0.000000 0.226045 0.974117
vn 0.000000 0.226045 0.974117
vn 0.000000 0.226045 0.974117
vn 0.843610 0.226045 0.487058
vn 0.843610 0.226045 0.487058
vn 0.843610 0.226045 0.487058
vn 0.843610 0.226045 0.487058
vn 0.843610 0.226045 -0.487058
vn 0.843610 0.226045 -0.487058
vn 0.843610 0.226045 -0.487058
vn 0.843610 0.226045 -0.487058
vn 0.000000 0.654654 -0.755929
vn 0.000000 0.654654 -0.755929
vn 0.000000 0.654654 -0.755929
vn 0.000000 0.654654 -0.755929
vn -0.654654 0.654654 -0.377965
vn -0.654654 0.654654 -0.377965
vn -0.654654 0.654654 -0.377965
vn -0.654654 0.654654 -0.377965
vn -0.654654 0.654654 0.377964
vn -0.654654 0.654654 0.377964
vn -0.654654 0.654654 0.377964
vn -0.654654 0.654654 0.377964
vn 0.000000 0.654654 0.755929
vn 0.000000 0.654654 0.755929
vn 0.000000 0.654654 0.755929
vn 0.000000 0.654654 0.755929
vn 0.654654 0.654654 0.377964
vn 0.654654 0.654654 0.377964
vn 0.654654 0.654654 0.377964
vn 0.654654 0.654654 0.377964
vn 0.654654 0.654654 -0.377964
vn 0.654654 0.654654 -0.377964
vn 0.654654 0.654654 -0.377964
vn 0.654654 0.654654 -0.377964
vn 0.000000 -0.955319 -0.295577
vn 0.000000 -0.955319 -0.295577
vn 0.000000 -0.955319 -0.295577
vn -0.255977 -0.955319 -0.147789
vn -0.255977 -0.955319 -0.147789
vn -0.255977 -0.955319 -0.147789
vn -0.255977 -0.955319 0.147788
vn -0.255977 -0.955319 0.147788
vn -0.255977 -0.955319 0.147788
vn 0.000000 -0.955319 0.295577
vn 0.000000 -0.955319 0.295577
vn 0.000000 -0.955319 0.295577
vn 0.255977 -0.955319 0.147789
vn 0.255977 -0.955319 0.147789
vn 0.255977 -0.955319 0.147789
vn 0.255977 -0.955319 -0.147788
vn 0.255977 -0.955319 -0.147788
vn 0.255977 -0.955319 -0.147788
vn 0.000000 0.955319 -0.295577
vn 0.000000 0.955319 -0.295577
vn 0.000000 0.955319 -0.295577
vn -0.255977 0.955319 -0.147789
vn -0.255977 0.955319 -0.147789
vn -0.255977 0.955319 -0.147789
vn -0.255977 0.955319 0.147788
vn -0.255977 0.955319 0.147788
vn -0.255977 0.955319 0.147788
vn 0.000000 0.955319 0.295577
vn 0.000000 0.955319 0.295577
vn 0.000000 0.955319 0.295577
vn 0.255977 0.955319 0.147788
vn 0.255977 0.955319 0.147788
vn 0.255977 0.955319 0.147788
vn 0.255977 0.955319 -0.147788
vn 0.255977 0.955319 -0.147788
vn 0.255977 0.955319 -0.147788
usemtl testsphere:initialShadingGroup
f 1/1/1 2/2/2 7/4/3
f 7/4/3 2/2/2 8/3/4
f 2/2/5 3/5/6 8/3/7
f 8/3/7 3/5/6 9/6/8
f 3/5/9 4/7/10 9/6/11
f 9/6/11 4/7/10 10/8/12
f 4/7/13 5/9/14 10/8/15
f 10/8/15 5/9/14 11/10/16
f 5/9/17 6/11/18 11/10/19
f 11/10/19 6/11/18 12/12/20
f 6/11/21 1/13/22 12/12/23
f 12/12/23 1/13/22 7/14/24
f 7/4/25 8/3/26 13/16/27
f 13/16/27 8/3/26 14/15/28
f 8/3/29 9/6/30 14/15/31
f 14/15/31 9/6/30 15/17/32
f 9/6/33 10/8/34 15/17/35
f 15/17/35 10/8/34 16/18/36
f 10/8/37 11/10/38 16/18/39
f 16/18/39 11/10/38 17/19/40
f 11/10/41 12/12/42 17/19/43
f 17/19/43 12/12/42 18/20/44
f 12/12/45 7/14/46 18/20/47
f 18/20/47 7/14/46 13/21/48
f 13/16/49 14/15/50 19/23/51
f 19/23/51 14/15/50 20/22/52
f 14/15/53 15/17/54 20/22/55
f 20/22/55 15/17/54 21/24/56
f 15/17/57 16/18/58 21/24/59
f 21/24/59 16/18/58 22/25/60
f 16/18/61 17/19/62 22/25/63
f 22/25/63 17/19/62 23/26/64
f 17/19/65 18/20/66 23/26/67
f 23/26/67 18/20/66 24/27/68
f 18/20/69 13/21/70 24/27/71
f 24/27/71 13/21/70 19/28/72
f 19/23/73 20/22/74 25/30/75
f 25/30/75 20/22/74 26/29/76
f 20/22/77 21/24/78 26/29/79
f 26/29/79 21/24/78 27/31/80
f 21/24/81 22/25/82 27/31/83
f 27/31/83 22/25/82 28/32/84
f 22/25/85 23/26/86 28/32/87
f 28/32/87 23/26/86 29/33/88
f 23/26/89 24/27/90 29/33/91
f 29/33/91 24/27/90 30/34/92
f 24/27/93 19/28/94 30/34/95
f 30/34/95 19/28/94 25/35/96
f 2/2/97 1/1/98 31/36/99
f 3/5/100 2/2/101 31/37/102
f 4/7/103 3/5/104 31/38/105
f 5/9/106 4/7/107 31/39/108
f 6/11/109 5/9/110 31/40/111
f 1/13/112 6/11/113 31/41/114
f 25/30/115 26/29/116 32/42/117
f 26/29/118 27/31/119 32/43/120
f 27/31/121 28/32/122 32/44/123
f 28/32/124 29/33/125 32/45/126
f 29/33/127 30/34/128 32/46/129
f 30/34/130 25/35/131 32/47/132
